<?xml version="1.0"?>
<svg width="35" height="34" xmlns="http://www.w3.org/2000/svg" xmlns:svg="http://www.w3.org/2000/svg">
 <g class="layer">
  <title>Layer 1</title>
  <path d="m11.63,26c-0.36,0 -0.73,-0.05 -1.08,-0.14c-1.05,-0.31 -1.95,-1.01 -2.49,-1.96c-0.55,-0.96 -0.7,-2.09 -0.42,-3.15l1.75,-6.63c0.14,-0.54 0.38,-1.04 0.71,-1.48c0.34,-0.44 0.76,-0.8 1.23,-1.08c0.47,-0.27 0.98,-0.44 1.52,-0.51c0.53,-0.07 1.08,-0.04 1.6,0.11c0.55,0.15 1.06,0.41 1.5,0.77c0.45,0.36 0.81,0.81 1.08,1.32l1.95,0c0.25,-0.51 0.62,-0.97 1.06,-1.33c0.45,-0.36 0.96,-0.63 1.52,-0.78c0.51,-0.14 1.06,-0.18 1.59,-0.11c0.54,0.07 1.05,0.25 1.52,0.52c0.47,0.27 0.89,0.64 1.23,1.08c0.33,0.44 0.57,0.94 0.71,1.47l1.75,6.65c0.28,1.06 0.13,2.2 -0.41,3.16c-0.55,0.96 -1.45,1.66 -2.51,1.96c-0.52,0.14 -1.06,0.18 -1.6,0.11c-0.53,-0.07 -1.05,-0.24 -1.51,-0.51c-0.48,-0.28 -0.9,-0.65 -1.23,-1.09c-0.33,-0.44 -0.58,-0.94 -0.71,-1.47l-0.14,-0.66l-4.5,0l-0.17,0.64c-0.14,0.54 -0.38,1.04 -0.72,1.48c-0.33,0.44 -0.75,0.8 -1.22,1.08c-0.61,0.35 -1.3,0.54 -2.01,0.55zm1.74,-13.5c-0.45,0 -0.89,0.12 -1.29,0.34c-0.3,0.18 -0.57,0.42 -0.78,0.7c-0.22,0.28 -0.37,0.6 -0.46,0.95l-1.75,6.63c-0.18,0.68 -0.09,1.41 0.26,2.02c0.35,0.62 0.92,1.07 1.6,1.27c0.33,0.09 0.67,0.11 1.01,0.07c0.34,-0.05 0.66,-0.16 0.96,-0.33c0.3,-0.18 0.57,-0.41 0.78,-0.69c0.22,-0.29 0.37,-0.61 0.46,-0.95l0.47,-1.76l6.75,0l0.45,1.76c0.18,0.69 0.63,1.28 1.25,1.64c0.29,0.17 0.62,0.28 0.96,0.33c0.34,0.04 0.68,0.02 1.01,-0.07c0.68,-0.2 1.26,-0.65 1.6,-1.27c0.35,-0.61 0.44,-1.34 0.25,-2.02l-1.74,-6.63c-0.09,-0.35 -0.25,-0.67 -0.46,-0.95c-0.21,-0.28 -0.48,-0.52 -0.78,-0.7c-0.3,-0.17 -0.62,-0.28 -0.96,-0.32c-0.34,-0.04 -0.69,-0.02 -1.01,0.07c-0.41,0.11 -0.79,0.33 -1.1,0.62c-0.3,0.28 -0.54,0.64 -0.68,1.04l-0.18,0.5l-3.98,0l-0.18,-0.5c-0.14,-0.4 -0.38,-0.76 -0.69,-1.05c-0.31,-0.29 -0.68,-0.5 -1.09,-0.61c-0.22,-0.06 -0.45,-0.09 -0.68,-0.09z" fill="#650C01" id="svg_1"/>
  <path d="m13.5,18.5c-0.3,0 -0.59,-0.09 -0.83,-0.26c-0.25,-0.16 -0.44,-0.39 -0.56,-0.67c-0.11,-0.27 -0.14,-0.57 -0.08,-0.86c0.06,-0.3 0.2,-0.56 0.41,-0.77c0.21,-0.21 0.48,-0.36 0.77,-0.41c0.29,-0.06 0.59,-0.03 0.86,0.08c0.28,0.12 0.51,0.31 0.68,0.55c0.16,0.25 0.25,0.54 0.25,0.84c0,0.4 -0.16,0.78 -0.44,1.06c-0.28,0.28 -0.66,0.44 -1.06,0.44z" fill="#650C01" id="svg_2"/>
  <path d="m22.5,16.25c0.41,0 0.75,-0.34 0.75,-0.75c0,-0.42 -0.34,-0.75 -0.75,-0.75c-0.41,0 -0.75,0.33 -0.75,0.75c0,0.41 0.34,0.75 0.75,0.75z" fill="#650C01" id="svg_3"/>
  <path d="m22.5,19.25c0.41,0 0.75,-0.34 0.75,-0.75c0,-0.42 -0.34,-0.75 -0.75,-0.75c-0.41,0 -0.75,0.33 -0.75,0.75c0,0.41 0.34,0.75 0.75,0.75z" fill="#650C01" id="svg_4"/>
  <path d="m21,17.75c0.41,0 0.75,-0.34 0.75,-0.75c0,-0.42 -0.34,-0.75 -0.75,-0.75c-0.41,0 -0.75,0.33 -0.75,0.75c0,0.41 0.34,0.75 0.75,0.75z" fill="#650C01" id="svg_5"/>
  <path d="m24,17.75c0.41,0 0.75,-0.34 0.75,-0.75c0,-0.42 -0.34,-0.75 -0.75,-0.75c-0.41,0 -0.75,0.33 -0.75,0.75c0,0.41 0.34,0.75 0.75,0.75z" fill="#650C01" id="svg_6"/>
  <path d="m16.31,10.25l-1.12,-1c0.35,-0.4 0.78,-0.72 1.27,-0.94c0.48,-0.22 1.01,-0.33 1.54,-0.33c0.53,0 1.06,0.11 1.54,0.33c0.49,0.22 0.92,0.54 1.27,0.94l-1.12,1c-0.21,-0.24 -0.47,-0.43 -0.76,-0.56c-0.3,-0.14 -0.61,-0.2 -0.93,-0.2c-0.32,0 -0.63,0.06 -0.93,0.2c-0.29,0.13 -0.55,0.32 -0.76,0.56z" fill="#650C01" id="svg_7"/>
  <path d="m21.94,8.28c-0.5,-0.56 -1.1,-1.01 -1.78,-1.32c-0.68,-0.3 -1.42,-0.46 -2.16,-0.46c-0.74,0 -1.48,0.16 -2.16,0.46c-0.68,0.31 -1.28,0.76 -1.78,1.32l-1.12,-0.99c0.63,-0.72 1.41,-1.3 2.28,-1.69c0.88,-0.4 1.82,-0.6 2.78,-0.6c0.96,0 1.9,0.2 2.78,0.6c0.87,0.39 1.65,0.97 2.28,1.69l-1.12,0.99z" fill="#650C01" id="svg_8"/>
 </g>
</svg>